<svg width="20" height="17" viewBox="0 0 20 17" fill="none" xmlns="http://www.w3.org/2000/svg">
<path d="M14.5833 0.583374H5.41665C5.17831 0.583374 4.94915 0.592541 4.72915 0.629208C2.36415 0.904208 0.833313 2.65504 0.833313 5.16671V11.5834C0.833313 14.3334 2.66665 16.1667 5.41665 16.1667H14.5833C17.3333 16.1667 19.1666 14.3334 19.1666 11.5834V5.16671C19.1666 2.41671 17.3333 0.583374 14.5833 0.583374ZM6.22331 10.6667C4.95831 10.6667 3.93165 9.64004 3.93165 8.37504C3.93165 7.11004 4.95831 6.08337 6.22331 6.08337C7.48831 6.08337 8.51498 7.11004 8.51498 8.37504C8.51498 9.64004 7.48831 10.6667 6.22331 10.6667ZM12.1816 10.8959H11.7233C11.3475 10.8959 11.0358 10.5842 11.0358 10.2084C11.0358 9.83254 11.3475 9.52087 11.7233 9.52087H12.1816C12.5575 9.52087 12.8691 9.83254 12.8691 10.2084C12.8691 10.5842 12.5575 10.8959 12.1816 10.8959ZM15.39 10.8959H14.9316C14.5558 10.8959 14.2441 10.5842 14.2441 10.2084C14.2441 9.83254 14.5558 9.52087 14.9316 9.52087H15.39C15.7658 9.52087 16.0775 9.83254 16.0775 10.2084C16.0775 10.5842 15.7658 10.8959 15.39 10.8959ZM15.39 7.22921H11.7233C11.3475 7.22921 11.0358 6.91754 11.0358 6.54171C11.0358 6.16587 11.3475 5.85421 11.7233 5.85421H15.39C15.7658 5.85421 16.0775 6.16587 16.0775 6.54171C16.0775 6.91754 15.7658 7.22921 15.39 7.22921Z" fill="#EFEEE0" fill-opacity="0.25"/>
</svg>
